<svg xmlns="http://www.w3.org/2000/svg" viewBox="0 0 32 32" fill="none">
  <circle cx="16" cy="16" r="15" fill="#1a1a2e" stroke="#6366f1" stroke-width="1"/>

  <!-- Simplified neural net for small size -->
  <!-- Input -->
  <circle cx="7" cy="10" r="2" fill="#818cf8"/>
  <circle cx="7" cy="16" r="2" fill="#818cf8"/>
  <circle cx="7" cy="22" r="2" fill="#818cf8"/>

  <!-- Hidden -->
  <circle cx="16" cy="8" r="2.2" fill="#a78bfa"/>
  <circle cx="16" cy="16" r="2.2" fill="#a78bfa"/>
  <circle cx="16" cy="24" r="2.2" fill="#a78bfa"/>

  <!-- Output -->
  <circle cx="25" cy="12" r="2.5" fill="#c084fc"/>
  <circle cx="25" cy="20" r="2.5" fill="#c084fc"/>

  <!-- Key connections only -->
  <line x1="9" y1="10" x2="14" y2="8" stroke="#818cf8" stroke-width="0.6" opacity="0.5"/>
  <line x1="9" y1="16" x2="14" y2="16" stroke="#818cf8" stroke-width="0.8" opacity="0.6"/>
  <line x1="9" y1="22" x2="14" y2="24" stroke="#818cf8" stroke-width="0.6" opacity="0.5"/>
  <line x1="9" y1="10" x2="14" y2="16" stroke="#818cf8" stroke-width="0.5" opacity="0.3"/>
  <line x1="9" y1="22" x2="14" y2="16" stroke="#818cf8" stroke-width="0.5" opacity="0.3"/>

  <line x1="18" y1="8" x2="23" y2="12" stroke="#a78bfa" stroke-width="0.7" opacity="0.5"/>
  <line x1="18" y1="16" x2="23" y2="12" stroke="#a78bfa" stroke-width="0.7" opacity="0.5"/>
  <line x1="18" y1="16" x2="23" y2="20" stroke="#a78bfa" stroke-width="0.7" opacity="0.5"/>
  <line x1="18" y1="24" x2="23" y2="20" stroke="#a78bfa" stroke-width="0.7" opacity="0.5"/>
</svg>
